<?xml version="1.0" encoding="utf-8"?>
<!-- Generator: Adobe Illustrator 26.3.1, SVG Export Plug-In . SVG Version: 6.00 Build 0)  -->
<svg version="1.1" id="Layer_2_00000131326509529470983120000013987960304355520153_"
	 xmlns="http://www.w3.org/2000/svg" xmlns:xlink="http://www.w3.org/1999/xlink" x="0px" y="0px" viewBox="0 0 1458.7 313.4"
	 style="enable-background:new 0 0 1458.7 313.4;" xml:space="preserve">
<style type="text/css">
	.st0{fill:#FF931E;}
	.st1{fill:#FCECD4;}
	.st2{fill:#4DC359;}
	.st3{fill:#F34337;}
	.st4{fill:#3E389F;}
</style>
<g id="Layer_1-2">
	<path class="st0" d="M217.4,43.4c4.7-21.2-6.9-30.1-16.4-36.4s-22.6-6.6-32.5-0.8c-8.1,4.8-13.9,13.1-22.4,17
		c-18.4,8.6-43.8-5.3-58.9,8.2C82,36.1,79.4,43,74.1,47.3c-9.1,7.4-22.6,4.8-33.9,8c-6.7,1.9-10.2,6-15.6,9.8
		c-4.6,3.3-9.1,4.8-14.1,8.1c-24.8,16.2,12.9,45.7,27,52.6c8.9,4.4,18.4,7.6,26.3,13.5c10.9,8.1,18.1,20.9,30.2,27.1
		c11.6,5.9,25.9,4.8,37.6,10.5c8.2,4,14.7,11.2,23.1,14.9c10.7,4.7,26.2,5.3,34.9,13.1"/>
	<path class="st1" d="M156.5,70.3c-4.8,6.6-15.2,5.9-26.2,5.1c-11.5-0.8-24.6-1.7-32.9,5.4c-2.8,2.4-4.2,6.1-5.7,10
		c-1.9,4.8-3.8,9.8-8.4,12.8c-3.7,2.3-8.6,2.2-13.4,2.1c-7.8-0.2-12.7,0-14.1,6c-1.3,5.7-0.9,10.2,1.4,13.7
		c4.7,7.2,17.1,9.6,28,11.7c8.4,1.6,16.3,3.1,21,6.7c3.5,2.7,6.5,6.1,9.4,9.3c2.8,3.1,5.5,6.1,8.7,8.6c9.4,7.3,21.8,10.1,33.8,12.9
		l0.1,0c15.5,3.5,28.6,23.3,29.2,24.2l0.1,0.1c2.1,3.9,4.6,7.4,7.9,7.7c1.3,0.1,2.8-0.3,4.4-0.8c0.4-0.1,0.8-0.2,1.2-0.4
		c8.3-2.3,17.6-0.9,25.6,4c8,4.9,13.6,12.5,15.2,20.9c1,5.4,0.8,11.1,0.5,16.7c-0.4,9.3-0.9,18.1,4.9,23.9c2.3,2.3,6.2,3.7,8.5,2
		c2-1.5,2.5-4.5,2.9-7.8c0.1-0.6,0.2-1.2,0.3-1.9c0.5-2.9,2-6.7,4.9-8.8c1.6-1.1,3.5-1.6,5.4-1.2c2.5,0.5,4.8,2.3,6.4,5.3
		c3.6,6.8,3,14.6,2.1,22l-0.1,0.6c-0.8,6.5-1.7,13.3,0.6,19c1.3,3.2,4.1,6.1,7.3,7.4c1.6,0.6,3.9,1.2,6.3,0.1
		c5.5-2.4,6.4-10.4,5.4-17c-0.9-5.6-2.4-11.2-4-16.7c-2.4-8.5-4.9-17.3-4.7-26.4c0.1-7.8,2-15.3,3.9-22.5c1.4-5.5,2.9-11.2,3.5-16.8
		c1.9-17.5-5-35.8-17.8-47.8c-3.1-2.9-6.7-5.6-10.1-8.1c-7.4-5.5-15-11.2-19.2-19.7c-3.7-7.4-4.2-15.5-4.7-23.5
		c-0.4-6.8-0.8-13.3-3.1-19.2c-2.6-6.8-7.7-12.9-12.6-18.7c-5.8-6.9-11.8-14.1-14.1-22.9C189.3,46.8,172.9,47.6,156.5,70.3
		L156.5,70.3z"/>
	<path class="st2" d="M215.2,170.7c-0.6-32.8-32.1-58.9-70.3-58.2C145.4,145.4,176.9,171.4,215.2,170.7z"/>
	<path class="st2" d="M226.3,133.6c11.8-14.9,30.8-17.8,31.9-17c1.1,0.8,2.1,18.7-9.7,33.6s-31.9,21.2-32.9,20.4
		S214.5,148.5,226.3,133.6z"/>
	<circle class="st3" cx="113.1" cy="112.5" r="18.7"/>
	<circle class="st3" cx="205.2" cy="94.8" r="18.7"/>
	
		<ellipse transform="matrix(0.1602 -0.9871 0.9871 0.1602 24.6412 417.1821)" class="st3" cx="257.5" cy="194.1" rx="18.7" ry="18.7"/>
	<path class="st4" d="M26.5,122.9L26.5,122.9l1,0.8c0.1,0.1,0.3,0.2,0.5,0.3c3.2,2.2,6.5,4.2,8.8,5.3c2.6,1.3,5.3,2.5,7.9,3.6
		c6.4,2.8,12.4,5.5,17.6,9.4c4.3,3.2,8.1,7.3,11.8,11.3c5.5,5.9,11.1,12,18.6,15.8c6.3,3.2,13.2,4.5,19.9,5.7
		c6.2,1.1,12.1,2.2,17.4,4.8c3.6,1.7,6.8,4.1,10.3,6.7c3.9,2.9,8,6,12.8,8c4.2,1.8,9,3.1,13.7,4.2c7.4,1.9,15,3.8,19.6,7.9
		c2.6,3.2,5.7,5,9,5.2c2.5,0.2,4.7-0.5,6.6-1.1c0.4-0.1,0.7-0.2,1.1-0.3c6.6-1.9,14.1-0.6,20.7,3.4s11,10.2,12.3,16.9
		c0.9,4.7,0.6,10.1,0.4,15.2c-0.5,10.1-1,20.6,6.6,28.3c4,4,11,6.3,16.1,2.6c4.1-2.9,4.7-7.6,5.3-11.8c0.1-0.6,0.2-1.2,0.2-1.7
		c0.3-2,1.4-4.1,2.5-4.9c0.4-0.2,0.6-0.3,0.8-0.2c0.5,0.1,1.3,0.7,2.1,2.3c2.8,5.2,2.2,12,1.4,18.4l-0.1,0.6
		c-0.9,7.2-1.8,14.7,1,21.9c1.9,4.7,5.9,8.8,10.5,10.6c1.9,0.8,3.8,1.1,5.6,1.1s3.6-0.4,5.3-1.1c8.5-3.8,10.1-14.5,8.8-23.2
		c-0.9-5.9-2.5-11.7-4.1-17.3c-2.4-8.4-4.6-16.4-4.5-24.6c0.1-7,1.8-13.8,3.7-21.1c1.5-5.7,3-11.5,3.6-17.6
		c2-19.2-5.4-39.3-19.5-52.6c-3.3-3.1-6.9-5.9-10.5-8.5c-4.2-3.1-8.1-6.1-11.4-9.6c2-5.7,3.2-11.8,3.2-18.1V113
		c-0.1-0.6-0.4-1.2-0.9-1.6c-0.5-0.4-1.1-0.6-1.8-0.5l-1.2,0.1c-3,0.4-6,1-8.9,1.9c-0.1-1.4-0.2-2.8-0.3-4.1
		c-0.4-6.9-0.9-14.1-3.4-20.9c-2.9-7.8-8.3-14.2-13.5-20.4c-6.1-7.3-11.9-14.2-13.1-22.6v-0.4c4.9-24-9.9-33.7-17.9-39
		c-10.6-6.9-25-7.3-35.9-0.9c-4,2.3-7.3,5.4-10.6,8.3c-3.7,3.3-7.2,6.5-11.3,8.4c-7.4,3.4-16.6,2.8-25.6,2.1
		c-11.9-0.9-24.3-1.8-33.6,6.6c-2.7,2.5-4.7,5.4-6.7,8.2c-1.9,2.8-3.7,5.5-6.1,7.4c-4.9,4-11.6,4.6-18.8,5.2
		c-4.5,0.4-9.1,0.8-13.5,2.1c-5.5,1.6-9,4.3-12.7,7.3c-1.2,1-2.5,2-3.8,2.9c-2.2,1.6-4.5,2.7-6.9,4c-2.2,1.1-4.5,2.3-6.9,3.9
		C2.9,75.5-0.4,81.3,0,88.3C0.3,93.3,3.5,106.5,26.5,122.9z M118.2,30.5L118.2,30.5c9.8,0.7,20,1.5,29.1-2.8c5.1-2.4,9.1-6,13.1-9.6
		c3.1-2.8,6.1-5.5,9.4-7.4c8.6-5,20-4.8,28.4,0.7c9.4,6.2,18.3,13.6,15,31c-24.1-1.5-42.6-0.6-60.5,24.2c-2.8,3.9-11.1,3.3-20.7,2.7
		c-12.6-0.9-26.8-1.9-36.9,6.9c-3.9,3.3-5.6,7.9-7.3,12.4c-1.6,4.1-3.1,8-6,9.9c-2.1,1.3-6.1,1.3-9.9,1.2c-4.1-0.1-9.1-0.2-13.1,1.7
		c-1-5.7-4-11.4-9-16.4C47,82.2,37.6,73.5,24.2,71.2c1.3-0.8,2.4-1.5,3.5-2.2c1.6-1.1,3-2.2,4.2-3.2c3.2-2.6,6-4.8,10.1-6
		c3.8-1.1,8-1.5,12.2-1.8c7.9-0.7,16.1-1.4,22.6-6.8c3.2-2.6,5.4-5.8,7.5-8.9c1.8-2.6,3.4-5,5.5-6.9C96.9,29,107.3,29.7,118.2,30.5
		L118.2,30.5z M167.7,134.9c-0.3,1,0.2,1.9,1.1,2.4c1,0.4,1.9,0.9,2.9,1.3l0.3,0.1c2.3,1,4.5,2,6.7,3.1c8.1,3.9,15.5,9.3,23.3,17.1
		c1.8,1.8,3.6,3.7,5.3,5.5c0.3,0.4,0.7,0.7,1,1.1c-15.4-0.9-29.9-6.5-41-15.6c-11.2-9.2-17.9-21.1-19.5-34.2c0-0.3,0.1-0.7,0.3-0.9
		c0.2-0.2,0.5-0.3,0.8-0.3h0.1c15.8,0.7,30.8,6.3,42.2,15.7c9.6,7.9,16.1,18.3,18.7,29.4c-9.2-14.4-23.6-23.8-39.9-26
		C168.8,133.3,168,133.9,167.7,134.9L167.7,134.9z M222.9,164.1c1.4-1.8,2.8-3.6,4.2-5.4l-0.4-0.3l0,0l0.4,0.3
		c4.7-6,9.5-12.3,15.1-17.9c0.7-0.7,0.8-1.8,0.2-2.6c-0.5-0.8-1.6-1.1-2.5-0.8c-7.5,3.1-14.7,10.2-19.5,19.2
		c2.3-16.4,13.1-30,28.7-36c2.3-0.9,4.8-1.6,7.2-2.2C257.2,139.7,243.2,158.6,222.9,164.1L222.9,164.1z M214.4,150.2
		c-3.7-9.7-10.2-18.5-18.8-25.6c-14-11.6-32.5-17.8-51.9-17.4c-0.9,0-1.9,0.4-2.5,1.1c-0.7,0.7-1,1.6-1,2.6
		c0.3,17,8.3,32.9,22.5,44.6c13.6,11.2,31.4,17.4,50.3,17.4c0.5,0,2.9-0.2,3-0.2c17.9-2.1,32.8-12.9,40.8-27.9
		c3.2,3,6.8,5.7,10.3,8.3c3.4,2.6,6.9,5.2,9.9,8c12.5,11.7,19.1,29.6,17.3,46.6c-0.6,5.5-2,11.1-3.5,16.6
		c-1.9,7.3-3.8,14.9-3.9,22.8c-0.1,9.2,2.4,18.1,4.8,26.7c1.5,5.4,3.1,11,3.9,16.5c0.9,6.1,0.2,13.5-4.6,15.6c-2,0.9-4,0.4-5.3-0.1
		c-2.9-1.2-5.3-3.7-6.5-6.6c-2.2-5.5-1.4-12-0.6-18.4l0.1-0.6c0.9-7.6,1.5-15.5-2.2-22.6c-1.8-3.4-4.3-5.5-7.2-6
		c-2.2-0.4-4.4,0.1-6.2,1.4c-3.2,2.3-4.9,6.4-5.4,9.6c-0.1,0.6-0.2,1.2-0.3,1.9c-0.4,3-0.8,5.8-2.4,7c-1.7,1.2-5,0-6.8-1.9
		c-5.4-5.4-4.9-13.9-4.5-22.9c0.3-5.6,0.6-11.4-0.5-16.9c-1.7-8.7-7.4-16.6-15.6-21.7c-8.2-5.1-17.9-6.6-26.4-4.2
		c-0.4,0.1-0.7,0.2-1.1,0.3l-0.2,0.1c-1.4,0.4-2.7,0.8-3.8,0.7c-2.8-0.2-4.9-3.5-6.9-7.1l-0.1-0.2c-0.6-0.9-13.8-21-29.8-24.7
		c-11.7-2.7-23.9-5.4-33-12.6c-3-2.4-5.7-5.3-8.4-8.4c-2.9-3.2-5.9-6.6-9.5-9.4c-4.8-3.8-12.8-5.3-21.3-6.9
		c-10.6-2-22.5-4.3-26.9-11.1c-2.1-3.2-2.5-7.3-1.2-12.7c1.1-4.5,4-5.2,12.8-5c4.9,0.1,10,0.2,13.9-2.3c5-3.2,6.9-8.4,8.8-13.4
		c1.4-3.8,2.8-7.3,5.3-9.5c7.8-6.8,20.5-5.9,31.7-5.1c11.2,0.8,21.9,1.5,27-5.6c15.9-22.1,31.6-22.8,55.3-21.2
		c2.4,8.6,8.3,15.6,13.9,22.4c4.8,5.7,9.8,11.7,12.2,18.3c2.2,5.8,2.6,12.1,3,18.9c0.1,2,0.3,4.1,0.4,6.2
		C229.2,122.1,218.3,135,214.4,150.2L214.4,150.2z M85.6,142.6c7.6,1.5,14.8,2.8,18.3,5.6c3.1,2.4,5.7,5.4,8.5,8.5
		c2.8,3.2,5.8,6.5,9.3,9.3c10.4,8.1,23.4,11.1,36,13.9c7.5,1.7,14.8,8.6,19.9,14.5c-3.1-1-6.3-1.8-9-2.5l-0.5-0.1
		c-4.4-1.1-8.6-2.2-12.1-3.7c-4-1.7-7.6-4.4-11.4-7.2c-3.5-2.6-7.2-5.4-11.4-7.4c-6.2-3-12.8-4.2-19.3-5.4c-6.4-1.2-12.5-2.2-17.9-5
		c-6.4-3.3-11.4-8.6-16.7-14.4c-3.1-3.4-6.3-6.9-10-9.9C74.6,140.5,80.2,141.6,85.6,142.6L85.6,142.6z M51.3,121.1
		c0.4,2.7,1.4,5.1,2.7,7.2c0.3,0.4,0.6,0.9,0.9,1.3c-2.4-1.2-4.9-2.3-7.3-3.4c-1.2-0.5-2.4-1.1-3.6-1.6
		C46.8,123.8,49.3,122.6,51.3,121.1L51.3,121.1z M11.8,78.4c13-2.9,25.8,4.4,32.8,11.5c2.8,2.9,6.3,7.5,7.1,13.1
		c0.7,4.9-1.1,9.7-4.4,12.2c-3.6,2.7-11.3,5.1-15.8,2.4c-4.1-2.9-8.1-6.1-11.5-9.3C14.4,103,7.6,95.1,7.2,87.9
		C7,84.2,8.5,81.1,11.8,78.4L11.8,78.4z"/>
	<path class="st4" d="M257.5,216.7c12.4,0,22.6-10.1,22.6-22.6s-10.1-22.6-22.6-22.6s-22.6,10.1-22.6,22.6S245,216.7,257.5,216.7z
		 M242.1,194.1c0-8.5,6.9-15.4,15.4-15.4s15.4,6.9,15.4,15.4s-6.9,15.4-15.4,15.4S242.1,202.6,242.1,194.1z"/>
	<path class="st4" d="M205.2,72.2c-12.4,0-22.6,10.1-22.6,22.6s10.1,22.6,22.6,22.6s22.6-10.1,22.6-22.6S217.6,72.2,205.2,72.2z
		 M220.6,94.8c0,8.5-6.9,15.4-15.4,15.4s-15.4-6.9-15.4-15.4s6.9-15.4,15.4-15.4S220.6,86.3,220.6,94.8z"/>
	<path class="st4" d="M113.1,90.5c-12.4,0-22.6,10.1-22.6,22.6s10.1,22.6,22.6,22.6s22.6-10.1,22.6-22.6S125.6,90.5,113.1,90.5z
		 M128.5,113.1c0,8.5-6.9,15.4-15.4,15.4s-15.4-6.9-15.4-15.4s6.9-15.4,15.4-15.4S128.5,104.6,128.5,113.1z"/>
	<g>
		<path class="st4" d="M1085.3,98c0.3-0.8,0.4-1.5,0.4-2.1c0-0.9-0.3-1.7-1-2.3c-0.7-0.7-1.4-1-2.3-1h-4.1c-1.2,0-2.1,0.3-2.7,0.9
			c-0.9,0.9-1.1,1.4-1.2,1.6l-27.7,93.8l-29.5-92.6c-0.2-0.8-0.6-1.6-1.4-2.4c-0.8-0.8-1.9-1.2-3.5-1.2h-4.3c-1.6,0-2.7,0.4-3.4,1.2
			c-0.8,0.9-1.3,1.8-1.5,2.5l-29.5,92.6l-27.7-93.7c-0.1-0.3-0.3-0.8-1.2-1.6c-0.6-0.6-1.5-0.9-2.7-0.9h-4.1c-0.9,0-1.7,0.3-2.3,1
			s-1,1.4-1,2.3c0,0.6,0.1,1.3,0.4,2.1l30.7,101.1c0.6,1.6,1.4,2.9,2.3,3.7c0.8,0.7,2.1,1.1,3.7,1.1h3.7c1.8,0,3.2-0.4,4.2-1.1
			c1-0.7,1.7-1.9,2.2-3.6l28.4-88.8l28.4,88.8c0.5,1.7,1.3,2.9,2.3,3.6c1.1,0.7,2.4,1.1,4.1,1.1h3.7c1.8,0,3.1-0.4,3.9-1.1
			c0.9-0.7,1.6-2,2.1-3.7L1085.3,98L1085.3,98z"/>
		<path class="st4" d="M1184.8,127.5c0-4.2-0.7-8.6-1.9-13c-1.3-4.3-3.4-8.4-6.4-11.9c-3-3.6-7.3-6.5-12.7-8.8
			c-5.4-2.3-12.5-3.4-20.8-3.4c-7.1,0-13.2,1-18.1,3c-4.9,2-9,4.4-12.1,7.3c-3.1,2.9-5.4,5.8-6.9,8.8c-1.4,2.9-2.2,5.3-2.2,7.2
			c0,1.1,0.3,2,0.9,2.8c0.5,0.7,1.5,1,2.9,1h3.5c1.6,0,2.6-0.8,3.2-2.6c1.8-5,5.2-9.1,10-12.2c4.8-3.1,11.1-4.6,18.8-4.6
			c10.5,0,18.3,2.3,23.2,6.9c4.9,4.6,7.4,11,7.4,18.9v8.5l-35.3,4.9c-12.6,1.7-22.9,5.5-30.7,11.4c-7.7,5.7-11.6,13.4-11.6,22.9
			c0,5.9,1.8,11.2,5.2,15.8c3.5,4.7,8.2,8.5,13.9,11.4c5.7,2.8,12.1,4.2,18.8,4.2c7.4,0,13.6-0.9,18.5-2.7c4.9-1.8,8.9-3.9,12-6.5
			c3.1-2.5,5.5-5.1,7.2-7.6l1.8-2.8V200c0,1.2,0.3,2.1,1,2.8s1.6,1,2.8,1h3.7c1.2,0,2.1-0.3,2.8-1s1-1.6,1-2.8L1184.8,127.5
			L1184.8,127.5z M1173.6,153.9c0,9.3-1.7,17.1-5,23.2c-3.3,6.2-7.9,10.8-13.6,13.8c-5.6,3-11.9,4.5-18.8,4.5
			c-4.6,0-9.1-0.8-13.5-2.4c-4.4-1.6-8.1-4-11-7.1c-2.9-3.2-4.4-7.4-4.4-12.4c0-6.3,3.2-11.6,9.6-15.7c6.2-4,15.4-6.8,27.4-8.4
			l29.2-4.1V153.9L1173.6,153.9z"/>
		<path class="st4" d="M1224.5,55c0-1.2-0.3-2.1-1-2.8s-1.6-1-2.8-1h-3.7c-1.2,0-2.1,0.3-2.8,1c-0.7,0.7-1,1.6-1,2.8v145
			c0,1.2,0.3,2.1,1,2.8c0.7,0.7,1.6,1,2.8,1h3.7c1.2,0,2.1-0.3,2.8-1s1-1.6,1-2.8V55z"/>
		<path class="st4" d="M1264.7,55c0-1.2-0.3-2.1-1-2.8s-1.6-1-2.8-1h-3.7c-1.2,0-2.1,0.3-2.8,1c-0.7,0.7-1,1.6-1,2.8v145
			c0,1.2,0.3,2.1,1,2.8c0.7,0.7,1.6,1,2.8,1h3.7c1.2,0,2.1-0.3,2.8-1s1-1.6,1-2.8V55z"/>
		<path class="st4" d="M1382.6,145.6c0-11.4-1.9-21.4-5.7-29.6c-3.8-8.2-9.2-14.6-16.1-18.9c-6.9-4.4-15.4-6.6-25.4-6.6
			c-9.2,0-17.3,2.1-24,6.2c-6.7,4.1-12,9.9-15.8,17.2c-3.8,7.4-6.2,16.1-6.9,25.7c-0.1,2.1-0.2,5-0.2,8.6s0.1,6.5,0.2,8.6
			c1.1,14.6,5.8,26.6,13.9,35.6c8,8.9,19.1,13.5,32.8,13.5c6.7,0,12.8-0.9,18.2-2.8s10-4.2,13.8-7c3.8-2.8,6.7-5.7,8.7-8.6
			c2-2.8,3.1-5.2,3.2-7c0.1-1-0.2-1.7-0.8-2.3c-0.8-0.6-1.7-1-2.7-1h-3.5c-1.8,0-2.6,0.2-3,0.4c-0.3,0.2-1.1,0.8-2.7,3.1
			c-0.8,1.2-2.4,3-4.9,5.3c-2.5,2.3-6,4.5-10.2,6.4c-4.2,1.9-9.6,2.9-16,2.9c-7.2,0-13.4-1.9-18.7-5.8c-5.2-3.8-9.3-8.8-12.1-14.8
			c-2.8-6-4.4-12.4-4.7-19v-3.2h78.5c1.2,0,2.2-0.3,2.9-1c0.7-0.7,1.1-1.6,1.1-2.7V145.6L1382.6,145.6z M1371.3,142.5H1300v-1.9
			c0-7.4,1.4-14.1,4.1-20c2.8-5.9,6.8-10.7,12.1-14.2c5.3-3.5,11.8-5.3,19.2-5.3s13.9,1.8,19.3,5.3c5.4,3.5,9.5,8.3,12.3,14.2
			c2.8,5.9,4.2,12.7,4.2,20V142.5L1371.3,142.5z"/>
		<path class="st4" d="M1458.7,197c0-1.2-0.3-2.1-1-2.8c-0.7-0.7-1.6-1-2.8-1h-11.8c-6.9,0-11.8-2.4-14.5-7
			c-2.6-4.5-3.9-10.7-3.9-18.6v-64.4h28c1.2,0,2.1-0.3,2.8-1s1-1.6,1-2.8v-3.1c0-1.2-0.3-2.1-1-2.8s-1.6-1-2.8-1h-28V55
			c0-1.2-0.3-2.1-1-2.8s-1.6-1-2.8-1h-3.7c-1.2,0-2.1,0.3-2.8,1c-0.7,0.7-1,1.6-1,2.8v37.6h-18c-1.2,0-2.1,0.3-2.8,1s-1,1.6-1,2.8
			v3.1c0,1.2,0.3,2.1,1,2.8s1.6,1,2.8,1h18v65.2c0,6.7,0.9,12.8,2.6,18.2c1.7,5.3,4.6,9.5,8.8,12.6c4.2,3.1,10,4.6,17.3,4.6h12.8
			c1.2,0,2.1-0.3,2.8-1s1-1.6,1-2.8L1458.7,197L1458.7,197z"/>
	</g>
	<g>
		<path class="st4" d="M476.1,59.2c-8.7-3.6-19-5.4-30.8-5.4h-59.6c-1.6,0-2.8,0.5-3.8,1.5c-1,1-1.5,2.3-1.5,3.8v127.8
			c0,0,0,0.1,0,0.1v10.4h0c0,0,0,0.1,0,0.1c0,3.6,3,6.6,6.6,6.6s6.6-3,6.6-6.6c0,0,0-0.1,0-0.1h0c0,0,0,0.1,0,0.1
			c0,3.6,3,6.6,6.6,6.6s6.6-3,6.6-6.6c0,0,0-0.1,0-0.1h0c0,0,0,0.1,0,0.1c0,3.6,3,6.6,6.6,6.6s6.6-3,6.6-6.6c0,0,0-0.1,0-0.1h0V174
			l0,0v-23.1h25.4c11.8,0,22-1.7,30.8-5.1s15.5-8.7,20.5-15.8c4.9-7.1,7.4-16.1,7.4-27.1s-2.5-20.2-7.4-27.5S484.8,62.8,476.1,59.2
			L476.1,59.2z M458.9,116.8c-3.6,3.1-8.5,4.7-14.6,4.7h-24.9V83.4h24.9c7.1,0,12.2,1.8,15.3,5.5c3.1,3.7,4.7,8.2,4.7,13.6
			C464.3,108.9,462.5,113.7,458.9,116.8L458.9,116.8z"/>
		<path class="st4" d="M545.8,46.6h-25.1c-1.5,0-2.8,0.5-3.8,1.6c-1,1-1.5,2.3-1.5,3.9v18.7c0,0.1,0,0.1,0,0.2v5.2h0
			c0,0,0,0.1,0,0.1c0,3.3,2.7,6,6,6s6-2.7,6-6c0,0,0-0.1,0-0.1h0c0,0,0,0.1,0,0.1c0,3.3,2.7,6,6,6s6-2.7,6-6c0,0,0-0.1,0-0.1h0
			c0,0,0,0.1,0,0.1c0,3.3,2.7,6,6,6s6-2.7,6-6c0,0,0-0.1,0-0.1h0V71c0-0.1,0-0.1,0-0.2V52.1c0-1.5-0.5-2.8-1.6-3.9
			C548.6,47.2,547.3,46.6,545.8,46.6L545.8,46.6z"/>
		<path class="st4" d="M896.3,177.2L896.3,177.2l0-45.4c0-6.3-1-12-3-17.2c-2-5.2-5-9.7-9-13.5c-4-3.8-9.3-6.8-15.9-8.9
			c-6.5-2.1-14.4-3.2-23.7-3.2s-16.3,1.1-22.6,3.2c-6.2,2.1-11.4,4.8-15.3,8.1c-4,3.3-6.9,6.6-8.8,9.9c-3.1,5.2-2.9,10.5-2.9,13.5
			s2.5,5.5,5.5,5.5s5.5-2.5,5.5-5.5l0,0c0,3.1,2.5,5.5,5.5,5.5s5.5-2.5,5.5-5.5l0,0c0,3.1,2.5,5.5,5.5,5.5s4.9-2.5,5.5-5.5
			c1.2-6.3,3.6-11.8,16.3-11.5c5.7,0.1,9.6,1.3,11.7,4.1c2.1,2.7,3.2,6.6,3.2,11.7v3l-26.6,4.1c-13.6,2.1-24.6,6.1-32.8,12
			c-8.2,5.9-12.4,13.9-12.4,24c0,6.2,1.8,11.9,5.3,16.8c3.5,5,8.3,8.9,14.4,11.8c6,2.9,12.9,4.4,20.6,4.4c5.5,0,10.4-0.7,14.6-2
			c4.2-1.4,7.8-3.2,11-5.4c3.1-2.3,5.6-4.8,7.5-7.5v1.4c0,0.1,0,0.2,0,0.3v7.3h0c0,0,0,0.1,0,0.1c0,3.3,2.6,5.9,5.9,5.9
			s5.9-2.6,5.9-5.9c0,0,0-0.1,0-0.1h0c0,0,0,0.1,0,0.1c0,3.3,2.6,5.9,5.9,5.9s5.9-2.6,5.9-5.9c0,0,0-0.1,0-0.1h0c0,0,0,0.1,0,0.1
			c0,3.3,2.6,5.9,5.9,5.9s5.9-2.6,5.9-5.9c0,0,0-0.1,0-0.1h0L896.3,177.2L896.3,177.2z M859.9,154.6c0,5.7-1,10.4-2.9,14.2
			s-4.5,6.5-7.9,8.3c-3.3,1.8-7.1,2.7-11.2,2.7c-2.8,0-5.4-0.5-7.7-1.4c-2.3-0.9-4.1-2.2-5.5-3.9s-2.1-3.8-2.1-6.2
			c0-3.1,1.5-5.9,4.6-8.2c3-2.3,7.9-4.1,14.6-5.2l18.1-3.2L859.9,154.6L859.9,154.6z"/>
		<path class="st4" d="M545.2,92.1c-3.3,0-6,2.7-6,6c0,0,0,0.1,0,0.1h0c0,0,0-0.1,0-0.1c0-3.3-2.7-6-6-6s-6,2.7-6,6c0,0,0,0.1,0,0.1
			h0c0,0,0-0.1,0-0.1c0-3.3-2.7-6-6-6s-6,2.7-6,6c0,0,0,0.1,0,0.1h0V198h0c0,0,0,0.1,0,0.1c0,3.3,2.7,6,6,6s6-2.7,6-6
			c0,0,0-0.1,0-0.1h0c0,0,0,0.1,0,0.1c0,3.3,2.7,6,6,6s6-2.7,6-6c0,0,0-0.1,0-0.1h0c0,0,0,0.1,0,0.1c0,3.3,2.7,6,6,6s6-2.7,6-6
			c0,0,0-0.1,0-0.1h0V98.2h0c0,0,0-0.1,0-0.1C551.2,94.8,548.5,92.1,545.2,92.1L545.2,92.1z"/>
		<path class="st4" d="M669.1,181.2c0-2.5-2-4.6-4.6-4.6c0,0,0,0-0.1,0H653c0,0-0.1,0-0.1,0h-42.6l48.6-53.5c0.8-1,1.6-2,2.1-3
			c0.6-1,0.8-2.1,0.8-3.4V98.6c0-1.6-0.5-2.8-1.6-3.8c-1.1-1-2.3-1.5-3.7-1.5H569c0,0,0,0-0.1,0c-2.5,0-4.6,2.1-4.6,4.6
			s2,4.6,4.6,4.6c0,0,0,0,0.1,0v0c0,0,0,0-0.1,0c-2.5,0-4.6,2.1-4.6,4.6s2,4.6,4.6,4.6c0,0,0,0,0.1,0v0c0,0,0,0-0.1,0
			c-2.5,0-4.6,2.1-4.6,4.6s2,4.6,4.6,4.6c0,0,0,0,0.1,0h9.2c0,0,0.1,0,0.1,0h38.6l-49.8,54.1c-1,1-1.8,2.1-2.5,3.2
			c-0.6,1.1-1,2.5-1,4.1v16.6c0,1.6,0.5,2.8,1.6,3.8c1.1,1,2.3,1.5,3.7,1.5h95.5c0,0,0,0,0.1,0c2.5,0,4.6-2.1,4.6-4.6
			s-2-4.6-4.6-4.6c0,0,0,0-0.1,0v0c0,0,0,0,0.1,0c2.5,0,4.6-2.1,4.6-4.6s-2-4.6-4.6-4.6c0,0,0,0-0.1,0v0c0,0,0,0,0.1,0
			C667.1,185.8,669.1,183.7,669.1,181.2L669.1,181.2z"/>
		<path class="st4" d="M783.4,181.2c0-2.5-2-4.6-4.6-4.6c0,0,0,0-0.1,0h-11.5c0,0-0.1,0-0.1,0h-42.6l48.6-53.5c0.8-1,1.6-2,2.1-3
			c0.6-1,0.8-2.1,0.8-3.4V98.6c0-1.6-0.5-2.8-1.6-3.8c-1.1-1-2.3-1.5-3.7-1.5h-87.5c0,0,0,0-0.1,0c-2.5,0-4.6,2.1-4.6,4.6
			s2,4.6,4.6,4.6c0,0,0,0,0.1,0v0c0,0,0,0-0.1,0c-2.5,0-4.6,2.1-4.6,4.6s2,4.6,4.6,4.6c0,0,0,0,0.1,0v0c0,0,0,0-0.1,0
			c-2.5,0-4.6,2.1-4.6,4.6s2,4.6,4.6,4.6c0,0,0,0,0.1,0h9.2c0,0,0.1,0,0.1,0h38.6l-49.8,54.1c-1,1-1.8,2.1-2.5,3.2
			c-0.6,1.1-1,2.5-1,4.1v16.6c0,1.6,0.5,2.8,1.6,3.8c1.1,1,2.3,1.5,3.7,1.5h95.5c0,0,0,0,0.1,0c2.5,0,4.6-2.1,4.6-4.6
			s-2-4.6-4.6-4.6c0,0,0,0-0.1,0v0c0,0,0,0,0.1,0c2.5,0,4.6-2.1,4.6-4.6s-2-4.6-4.6-4.6c0,0,0,0-0.1,0v0c0,0,0,0,0.1,0
			C781.3,185.8,783.4,183.7,783.4,181.2L783.4,181.2z"/>
	</g>
</g>
</svg>
