<?xml version="1.0" encoding="utf-8"?>
<!-- Generator: Adobe Illustrator 26.3.1, SVG Export Plug-In . SVG Version: 6.00 Build 0)  -->
<svg version="1.1" id="Layer_2_00000116924269260322606510000015708902676583736242_"
	 xmlns="http://www.w3.org/2000/svg" xmlns:xlink="http://www.w3.org/1999/xlink" x="0px" y="0px" viewBox="0 0 303 313.4"
	 style="enable-background:new 0 0 303 313.4;" xml:space="preserve">
<style type="text/css">
	.st0{fill:#FF931E;}
	.st1{fill:#FCECD4;}
	.st2{fill:#4DC359;}
	.st3{fill:#F34337;}
	.st4{fill:#3E389F;}
</style>
<g id="Layer_1-2">
	<g>
		<path class="st0" d="M217.4,43.4c4.7-21.1-6.9-30.1-16.4-36.4s-22.6-6.6-32.5-0.8c-8.1,4.8-13.9,13.1-22.4,17
			c-18.4,8.6-43.8-5.3-58.9,8.2C82,36.1,79.4,43,74.1,47.4c-9.1,7.4-22.6,4.8-33.9,8c-6.7,1.9-10.2,6-15.6,9.8
			c-4.6,3.3-9.1,4.8-14.1,8.1c-24.8,16.2,12.9,45.7,27,52.6c8.9,4.4,18.4,7.6,26.3,13.5c10.9,8.1,18.1,20.9,30.2,27.1
			c11.6,5.9,25.9,4.8,37.6,10.5c8.2,4,14.7,11.2,23.1,14.9c10.7,4.7,26.2,5.3,34.9,13.1"/>
		<path class="st1" d="M156.5,70.3c-4.8,6.6-15.2,5.9-26.2,5.1c-11.5-0.8-24.6-1.7-32.9,5.4c-2.8,2.4-4.2,6.1-5.7,10
			c-1.9,4.8-3.8,9.8-8.4,12.8c-3.7,2.3-8.6,2.2-13.4,2.1c-7.8-0.2-12.7,0-14.1,6c-1.3,5.7-0.9,10.2,1.4,13.7
			c4.7,7.2,17.1,9.6,28,11.7c8.4,1.6,16.3,3.1,21,6.7c3.5,2.7,6.5,6.1,9.4,9.3c2.8,3.1,5.5,6.1,8.7,8.6c9.4,7.3,21.8,10.1,33.8,12.9
			l0.1,0c15.5,3.5,28.6,23.3,29.2,24.2l0.1,0.1c2.1,3.9,4.6,7.4,7.9,7.7c1.3,0.1,2.8-0.3,4.4-0.8c0.4-0.1,0.8-0.2,1.2-0.4
			c8.3-2.3,17.6-0.9,25.6,4c8,4.9,13.6,12.5,15.2,20.9c1,5.4,0.8,11.1,0.5,16.7c-0.4,9.3-0.9,18.1,4.9,23.9c2.3,2.3,6.2,3.7,8.5,2
			c2-1.5,2.5-4.5,2.9-7.8c0.1-0.6,0.2-1.2,0.3-1.9c0.5-2.9,2-6.7,4.9-8.8c1.6-1.1,3.5-1.6,5.4-1.2c2.5,0.5,4.8,2.3,6.4,5.3
			c3.6,6.8,3,14.6,2.1,22l-0.1,0.6c-0.8,6.5-1.7,13.3,0.6,19c1.3,3.2,4.1,6.1,7.3,7.4c1.6,0.6,3.9,1.2,6.3,0.1
			c5.5-2.4,6.4-10.4,5.4-17c-0.9-5.6-2.4-11.2-4-16.7c-2.4-8.5-4.9-17.3-4.7-26.4c0.1-7.8,2-15.3,3.9-22.5
			c1.4-5.5,2.9-11.2,3.5-16.8c1.9-17.5-5-35.8-17.8-47.8c-3.1-2.9-6.7-5.6-10.1-8.1c-7.4-5.5-15-11.2-19.2-19.7
			c-3.7-7.3-4.2-15.5-4.7-23.4c-0.4-6.8-0.8-13.3-3.1-19.2c-2.6-6.8-7.7-12.9-12.6-18.7c-5.8-6.9-11.8-14.1-14.1-22.9
			C189.3,46.8,172.9,47.6,156.5,70.3L156.5,70.3z"/>
		<path class="st2" d="M215.2,170.7c-0.6-32.8-32.1-58.9-70.3-58.2C145.4,145.4,176.9,171.4,215.2,170.7z"/>
		<path class="st2" d="M227.8,131.3c11.8-14.9,30.7-17.7,31.8-16.9s2.8,18.2-8.9,33.1c-11.8,14.9-34,24-35,23.2
			C214.5,169.8,216,146.2,227.8,131.3z"/>
		<circle class="st3" cx="113.1" cy="112.5" r="18.7"/>
		<circle class="st3" cx="205.2" cy="94.8" r="18.7"/>
		
			<ellipse transform="matrix(0.1602 -0.9871 0.9871 0.1602 24.6411 417.1822)" class="st3" cx="257.5" cy="194.1" rx="18.7" ry="18.7"/>
	</g>
	<path class="st4" d="M44.7,132.9c6.4,2.8,12.4,5.5,17.6,9.4c4.3,3.2,8.1,7.3,11.8,11.3c5.5,5.9,11.1,12,18.6,15.8
		c6.3,3.2,13.2,4.5,19.9,5.7c6.2,1.1,12.1,2.2,17.4,4.8c3.6,1.7,6.8,4.2,10.3,6.7c3.9,2.9,8,6,12.8,8c4.2,1.8,9,3.1,13.7,4.2
		c7.4,1.9,15,3.8,19.6,7.9c2.6,3.2,5.7,5,9,5.2c2.5,0.2,4.7-0.5,6.6-1.1c0.4-0.1,0.7-0.2,1.1-0.3c6.6-1.9,14.1-0.6,20.7,3.4
		c6.5,4,11,10.2,12.3,16.9c0.9,4.7,0.6,10,0.4,15.2c-0.5,10.1-1,20.6,6.6,28.3c4,4,11,6.3,16.1,2.6c4.1-2.9,4.7-7.6,5.3-11.8
		c0.1-0.6,0.2-1.2,0.2-1.7c0.3-2,1.4-4.1,2.5-4.9c0.4-0.3,0.6-0.3,0.8-0.2c0.5,0.1,1.3,0.7,2.1,2.3c2.8,5.2,2.2,12,1.4,18.4
		l-0.1,0.6c-0.9,7.2-1.8,14.7,1,21.9c1.9,4.7,5.9,8.8,10.5,10.6c1.9,0.8,3.8,1.1,5.6,1.1s3.6-0.4,5.3-1.1
		c8.5-3.8,10.1-14.5,8.8-23.2c-0.9-5.9-2.5-11.7-4.1-17.3c-2.4-8.4-4.6-16.4-4.5-24.6c0.1-7,1.8-13.8,3.7-21.1
		c1.5-5.7,3-11.5,3.6-17.6c2-19.2-5.4-39.3-19.5-52.6c-3.3-3.1-6.9-5.8-10.5-8.5c-4.2-3.1-8.1-6.1-11.5-9.6c2-5.7,3.2-11.8,3.2-18.1
		V113c-0.1-0.6-0.4-1.2-0.9-1.6c-0.5-0.4-1.1-0.6-1.8-0.5l-1.2,0.1c-3,0.4-6,1-8.9,1.9c-0.1-1.4-0.2-2.8-0.3-4.1
		c-0.4-6.9-0.9-14.1-3.4-20.9c-2.9-7.8-8.3-14.2-13.5-20.4c-6.1-7.3-11.9-14.2-13.1-22.6v-0.4c4.9-24-9.9-33.7-17.9-39
		c-10.6-6.9-25-7.3-35.9-0.9c-4,2.3-7.3,5.4-10.6,8.3c-3.7,3.3-7.2,6.5-11.3,8.4c-7.4,3.4-16.6,2.8-25.6,2.1
		c-11.9-0.9-24.3-1.8-33.6,6.6c-2.7,2.5-4.7,5.4-6.7,8.2c-1.9,2.8-3.8,5.5-6.1,7.4c-4.9,4-11.6,4.6-18.8,5.2
		c-4.5,0.4-9.1,0.8-13.5,2.1c-5.5,1.6-9,4.3-12.6,7.3c-1.2,1-2.5,2-3.9,3c-2.2,1.6-4.5,2.8-6.9,4c-2.2,1.1-4.5,2.3-6.9,3.9
		C2.9,75.5-0.4,81.3,0,88.3c0.3,4.9,3.5,18.1,26.5,34.5l0,0.1l1,0.7c0.1,0.1,0.3,0.2,0.5,0.3c3.2,2.2,6.5,4.2,8.8,5.3
		C39.4,130.5,42.1,131.7,44.7,132.9L44.7,132.9z M167.7,134.9c-0.3,1,0.2,1.9,1.1,2.4c1.1,0.5,2.1,1,3.2,1.4c2.3,1,4.5,2,6.7,3.1
		c8.1,3.9,15.5,9.3,23.3,17.1c1.8,1.8,3.6,3.7,5.3,5.5l1,1.1c-15.4-0.9-29.9-6.5-41-15.6c-11.2-9.2-17.9-21.1-19.5-34.2
		c0-0.3,0.1-0.7,0.3-0.9c0.2-0.2,0.5-0.3,0.8-0.3h0.1c15.8,0.7,30.8,6.3,42.2,15.7c9.6,7.9,16.1,18.3,18.7,29.4
		c-9.2-14.4-23.6-23.8-39.9-26C168.8,133.3,168,133.9,167.7,134.9L167.7,134.9z M222.9,164.1c1.4-1.8,2.8-3.6,4.2-5.4
		c4.7-6.1,9.5-12.3,15.1-17.9c0.7-0.7,0.8-1.8,0.2-2.6c-0.5-0.8-1.6-1.1-2.5-0.8c-7.5,3.1-14.7,10.2-19.5,19.2
		c2.3-16.4,13.1-30,28.7-36c2.4-0.9,4.8-1.6,7.2-2.2C257.2,139.7,243.2,158.6,222.9,164.1L222.9,164.1z M214.5,150.2
		c-3.7-9.7-10.2-18.5-18.8-25.6c-14-11.6-32.5-17.8-51.9-17.4c-0.9,0-1.9,0.4-2.5,1.1c-0.7,0.7-1,1.6-1,2.6
		c0.3,17,8.3,32.9,22.5,44.6c13.6,11.2,31.4,17.4,50.3,17.4c0.5,0,2.6-0.1,3-0.2c17.9-2.1,32.8-12.9,40.8-27.9
		c3.2,3,6.8,5.7,10.3,8.3c3.4,2.6,6.9,5.2,9.9,8c12.5,11.7,19.1,29.6,17.3,46.6c-0.6,5.5-2,11.1-3.4,16.6
		c-1.9,7.3-3.8,14.9-3.9,22.8c-0.1,9.2,2.4,18.1,4.8,26.7c1.5,5.4,3.1,11,3.9,16.5c0.9,6.1,0.2,13.5-4.6,15.6c-2,0.9-4,0.4-5.3-0.1
		c-2.9-1.2-5.3-3.7-6.5-6.6c-2.2-5.5-1.4-12-0.6-18.4l0.1-0.6c0.9-7.6,1.5-15.5-2.2-22.6c-1.8-3.4-4.3-5.5-7.2-6
		c-2.2-0.4-4.4,0.1-6.2,1.4c-3.2,2.3-4.9,6.4-5.4,9.6c-0.1,0.6-0.2,1.2-0.3,1.9c-0.4,3-0.8,5.8-2.4,7c-1.7,1.2-5,0-6.8-1.9
		c-5.4-5.4-4.9-13.9-4.5-22.9c0.3-5.6,0.6-11.4-0.5-16.9c-1.7-8.7-7.4-16.6-15.6-21.7s-17.9-6.6-26.4-4.2c-0.4,0.1-0.8,0.2-1.2,0.4
		l-0.1,0c-1.4,0.4-2.7,0.8-3.8,0.7c-2.8-0.2-4.9-3.5-6.9-7.1l-0.1-0.2c-0.6-0.9-13.8-21-29.8-24.7c-11.7-2.7-23.9-5.4-33-12.6
		c-3-2.4-5.7-5.3-8.4-8.4c-2.9-3.2-5.9-6.6-9.5-9.4c-4.8-3.8-12.8-5.3-21.3-6.9c-10.6-2-22.5-4.3-26.9-11.1
		c-2.1-3.2-2.5-7.3-1.2-12.7c1.1-4.5,4-5.2,12.8-5c4.9,0.1,10,0.2,13.9-2.3c5-3.2,6.9-8.4,8.8-13.4c1.4-3.8,2.8-7.3,5.3-9.5
		c7.8-6.8,20.5-5.9,31.7-5.1c11.2,0.8,21.9,1.5,27-5.6c15.9-22.1,31.6-22.8,55.3-21.2c2.4,8.6,8.3,15.6,13.9,22.4
		c4.8,5.7,9.8,11.7,12.2,18.3c2.2,5.8,2.6,12.1,2.9,18.8c0.1,2.1,0.3,4.2,0.5,6.3C229.2,122,218.4,135,214.5,150.2L214.5,150.2z
		 M85.6,142.6c7.6,1.5,14.8,2.8,18.3,5.6c3.1,2.4,5.7,5.4,8.5,8.5c2.8,3.2,5.8,6.5,9.3,9.3c10.4,8.1,23.4,11.1,36,13.9
		c7.5,1.7,14.8,8.6,19.9,14.5c-3.1-1-6.3-1.8-9-2.5l-0.5-0.1l0,0c-4.4-1.1-8.6-2.2-12.1-3.7c-4-1.7-7.6-4.4-11.4-7.2
		c-3.5-2.6-7.2-5.4-11.4-7.4c-6.2-3-12.8-4.2-19.3-5.4c-6.4-1.2-12.5-2.3-17.9-5c-6.4-3.3-11.4-8.6-16.7-14.4
		c-3.1-3.4-6.3-6.9-10-9.9C74.6,140.5,80.2,141.6,85.6,142.6L85.6,142.6z M51.3,121.2c0.4,2.7,1.4,5.1,2.7,7.2
		c0.3,0.4,0.6,0.9,0.9,1.3c-2.4-1.2-4.9-2.3-7.3-3.3c-1.2-0.5-2.4-1.1-3.6-1.6C46.8,123.8,49.3,122.6,51.3,121.2L51.3,121.2z
		 M31.5,117.6c-4.1-2.9-8.1-6.1-11.5-9.3C14.4,103,7.7,95.1,7.2,87.9c-0.2-3.7,1.3-6.8,4.6-9.5c13-2.9,25.8,4.4,32.8,11.5
		c2.8,2.9,6.3,7.5,7.1,13.1c0.7,4.9-1.1,9.7-4.4,12.2C43.6,118,35.9,120.4,31.5,117.6L31.5,117.6z M147.3,27.7
		c5.1-2.4,9.1-6,13.1-9.6c3.1-2.8,6.1-5.5,9.4-7.4c8.6-5,20-4.7,28.4,0.7c9.4,6.2,18.3,13.6,15,31c-24.1-1.5-42.6-0.6-60.5,24.2
		c-2.8,3.9-11.1,3.3-20.7,2.7c-12.6-0.9-26.8-1.9-36.9,6.9c-3.9,3.3-5.6,7.9-7.3,12.4c-1.6,4.1-3.1,8-6,9.9
		c-2.1,1.3-6.1,1.3-9.9,1.2c-4.1-0.1-9.1-0.2-13.1,1.7c-1-5.7-4-11.4-9-16.4c-2.6-2.7-12.1-11.4-25.5-13.8c1.3-0.8,2.4-1.5,3.5-2.2
		c1.6-1.1,2.9-2.2,4.2-3.2c3.2-2.6,6-4.8,10.1-6c3.8-1.1,8-1.5,12.2-1.8c7.9-0.7,16.1-1.4,22.6-6.8c3.2-2.6,5.4-5.8,7.5-8.9
		c1.8-2.6,3.4-5,5.5-6.9c7.1-6.4,17.4-5.6,28.3-4.8l0,0C128.1,31.2,138.3,32,147.3,27.7L147.3,27.7z M118.3,30L118.3,30z"/>
	<path class="st4" d="M257.5,216.7c12.4,0,22.6-10.1,22.6-22.6s-10.1-22.6-22.6-22.6s-22.6,10.1-22.6,22.6S245,216.7,257.5,216.7z
		 M242.1,194.1c0-8.5,6.9-15.4,15.4-15.4s15.4,6.9,15.4,15.4s-6.9,15.4-15.4,15.4S242.1,202.6,242.1,194.1z"/>
	<path class="st4" d="M205.2,72.2c-12.4,0-22.6,10.1-22.6,22.6s10.1,22.6,22.6,22.6s22.6-10.1,22.6-22.6S217.6,72.2,205.2,72.2z
		 M220.6,94.8c0,8.5-6.9,15.4-15.4,15.4s-15.4-6.9-15.4-15.4s6.9-15.4,15.4-15.4S220.6,86.3,220.6,94.8z"/>
	<path class="st4" d="M113.1,90.6c-12.4,0-22.6,10.1-22.6,22.6s10.1,22.6,22.6,22.6s22.6-10.1,22.6-22.6S125.6,90.6,113.1,90.6z
		 M128.5,113.1c0,8.5-6.9,15.4-15.4,15.4s-15.4-6.9-15.4-15.4s6.9-15.4,15.4-15.4S128.5,104.6,128.5,113.1z"/>
</g>
</svg>
